<svg width="175" height="28" viewBox="0 0 175 28" fill="none" xmlns="http://www.w3.org/2000/svg">
<path d="M20.98 28H17.14V21.28H4.66V28H0.82V7.84C0.82 6.912 1.14 6.128 1.78 5.488C2.452 4.816 3.252 4.48 4.18 4.48H20.98V28ZM17.14 17.92V7.84H4.66V20.8L7.54 17.92H17.14ZM45.4413 28H42.0813V25.6L39.6813 28H32.0013C31.0733 28 30.2733 27.68 29.6013 27.04C28.9613 26.368 28.6413 25.568 28.6413 24.64V14.56C28.6413 13.632 28.9613 12.848 29.6013 12.208C30.2733 11.536 31.0733 11.2 32.0013 11.2H42.0813V3.52L45.4413 0.159998V28ZM42.0813 25.12V11.68L39.6813 14.08H32.0013V25.12H42.0813ZM69.4413 28H66.0813V25.6L63.6813 28H56.0013C55.0733 28 54.2733 27.68 53.6013 27.04C52.9613 26.368 52.6413 25.568 52.6413 24.64V14.56C52.6413 13.632 52.9613 12.848 53.6013 12.208C54.2733 11.536 55.0733 11.2 56.0013 11.2H66.0813V3.52L69.4413 0.159998V28ZM66.0813 25.12V11.68L63.6813 14.08H56.0013V25.12H66.0813ZM103.051 28H99.6906V14.08H89.6106V28H86.2506V11.2H89.6106V13.6L92.0106 11.2H99.6906C100.619 11.2 101.403 11.536 102.043 12.208C102.715 12.848 103.051 13.632 103.051 14.56V28ZM126.582 28H113.142C112.214 28 111.414 27.68 110.742 27.04C110.102 26.368 109.782 25.568 109.782 24.64V14.56C109.782 13.632 110.102 12.848 110.742 12.208C111.414 11.536 112.214 11.2 113.142 11.2H123.222C124.15 11.2 124.934 11.536 125.574 12.208C126.246 12.848 126.582 13.632 126.582 14.56V17.92L123.222 21.28H113.622L116.502 18.4H123.222V14.08H113.142V25.12H126.582V28ZM155.86 11.2L151.252 28H145.972L143.38 16.528H142.9L140.212 28H134.932L130.42 11.2H134.02L137.14 25.216H138.1L141.556 11.2H144.916L148.18 25.216H149.14L152.26 11.2H155.86ZM174.837 11.2L171.909 14.08H163.797V17.92H170.517C171.445 17.92 172.229 18.256 172.869 18.928C173.541 19.568 173.877 20.352 173.877 21.28V24.64C173.877 25.568 173.541 26.368 172.869 27.04C172.229 27.68 171.445 28 170.517 28H160.437V25.12H170.517V20.8H163.797C162.869 20.8 162.069 20.48 161.397 19.84C160.757 19.168 160.437 18.368 160.437 17.44V14.56C160.437 13.632 160.757 12.848 161.397 12.208C162.069 11.536 162.869 11.2 163.797 11.2H174.837Z" fill="black"/>
</svg>
