<svg width="98" height="21" viewBox="0 0 98 21" fill="none" xmlns="http://www.w3.org/2000/svg">
<path d="M13.327 21H10.807V19.2L9.00703 21H3.24703C2.55103 21 1.95103 20.76 1.44703 20.28C0.967031 19.776 0.727031 19.176 0.727031 18.48V10.92C0.727031 10.224 0.967031 9.636 1.44703 9.156C1.95103 8.652 2.55103 8.4 3.24703 8.4H10.807V2.64L13.327 0.119998V21ZM10.807 18.84V8.76L9.00703 10.56H3.24703V18.84H10.807ZM21.247 6.24H18.727V3.36H21.247V6.24ZM21.247 21H18.727V10.2L21.247 7.68V21ZM36.5456 8.4L34.3496 10.56H28.2656V13.44H33.3056C34.0016 13.44 34.5896 13.692 35.0696 14.196C35.5736 14.676 35.8256 15.264 35.8256 15.96V18.48C35.8256 19.176 35.5736 19.776 35.0696 20.28C34.5896 20.76 34.0016 21 33.3056 21H25.7456V18.84H33.3056V15.6H28.2656C27.5696 15.6 26.9696 15.36 26.4656 14.88C25.9856 14.376 25.7456 13.776 25.7456 13.08V10.92C25.7456 10.224 25.9856 9.636 26.4656 9.156C26.9696 8.652 27.5696 8.4 28.2656 8.4H36.5456ZM51.113 8.4L48.917 10.56H42.833V18.84H50.393V21H42.833C42.137 21 41.537 20.76 41.033 20.28C40.553 19.776 40.313 19.176 40.313 18.48V10.92C40.313 10.224 40.553 9.636 41.033 9.156C41.537 8.652 42.137 8.4 42.833 8.4H51.113ZM66.2372 18.48C66.2372 19.176 65.9852 19.776 65.4812 20.28C65.0012 20.76 64.4132 21 63.7172 21H56.1572C55.4612 21 54.8612 20.76 54.3572 20.28C53.8772 19.776 53.6372 19.176 53.6372 18.48V10.92C53.6372 10.224 53.8772 9.636 54.3572 9.156C54.8612 8.652 55.4612 8.4 56.1572 8.4H63.7172C64.4132 8.4 65.0012 8.652 65.4812 9.156C65.9852 9.636 66.2372 10.224 66.2372 10.92V18.48ZM63.7172 18.84V10.56H56.1572V18.84H63.7172ZM81.3656 13.44H78.8456V10.56H73.8056V21H71.2856V8.4H73.8056V10.2L75.6056 8.4H78.8456C79.5416 8.4 80.1296 8.652 80.6096 9.156C81.1136 9.636 81.3656 10.224 81.3656 10.92V13.44ZM97.913 21H95.393V19.2L93.593 21H87.833C87.137 21 86.537 20.76 86.033 20.28C85.553 19.776 85.313 19.176 85.313 18.48V10.92C85.313 10.224 85.553 9.636 86.033 9.156C86.537 8.652 87.137 8.4 87.833 8.4H95.393V2.64L97.913 0.119998V21ZM95.393 18.84V8.76L93.593 10.56H87.833V18.84H95.393Z" fill="black"/>
</svg>
