<svg width="180" height="26" viewBox="0 0 180 26" fill="none" xmlns="http://www.w3.org/2000/svg">
<path d="M14.8823 5.4L12.7223 7.56H3.72227V15.84H11.2823V8.64H13.8023V23.04C13.8023 23.736 13.5503 24.324 13.0463 24.804C12.5663 25.308 11.9783 25.56 11.2823 25.56H0.842266L3.00227 23.4H11.2823V16.164L9.12227 18H3.72227C3.02627 18 2.42627 17.76 1.92227 17.28C1.44227 16.776 1.20227 16.176 1.20227 15.48V7.92C1.20227 7.224 1.44227 6.636 1.92227 6.156C2.42627 5.652 3.02627 5.4 3.72227 5.4H14.8823ZM31.078 18H28.558V16.164L26.398 18H20.998C20.302 18 19.702 17.76 19.198 17.28C18.718 16.776 18.478 16.176 18.478 15.48V12.96C18.478 12.264 18.718 11.676 19.198 11.196C19.702 10.692 20.302 10.44 20.998 10.44H28.198L26.038 12.564H20.998V15.84H28.558V7.56H18.478L20.638 5.4H28.558C29.254 5.4 29.842 5.652 30.322 6.156C30.826 6.636 31.078 7.224 31.078 7.92V18ZM57.344 18H54.824V7.56H47.984V18H45.464V7.56H38.624V18H36.104V5.4H38.624V7.2L40.424 5.4H45.464C46.928 5.4 47.756 6.012 47.948 7.236L49.784 5.4H54.824C55.52 5.4 56.108 5.652 56.588 6.156C57.092 6.636 57.344 7.224 57.344 7.92V18ZM64.9209 3.24H62.4009V0.36H64.9209V3.24ZM64.9209 18H62.4009V7.2L64.9209 4.68V18ZM82.5595 18H80.0395V7.56H72.4795V18H69.9595V5.4H72.4795V7.2L74.2795 5.4H80.0395C80.7355 5.4 81.3235 5.652 81.8035 6.156C82.3075 6.636 82.5595 7.224 82.5595 7.92V18ZM101.648 5.4L99.4879 7.56H90.4879V15.84H98.0479V8.64H100.568V23.04C100.568 23.736 100.316 24.324 99.8119 24.804C99.3319 25.308 98.7439 25.56 98.0479 25.56H87.6079L89.7679 23.4H98.0479V16.164L95.8879 18H90.4879C89.7919 18 89.1919 17.76 88.6879 17.28C88.2079 16.776 87.9679 16.176 87.9679 15.48V7.92C87.9679 7.224 88.2079 6.636 88.6879 6.156C89.1919 5.652 89.7919 5.4 90.4879 5.4H101.648ZM125.591 18H123.071V7.56H115.511V18H112.991V5.4H115.511V7.2L117.311 5.4H123.071C123.767 5.4 124.355 5.652 124.835 6.156C125.339 6.636 125.591 7.224 125.591 7.92V18ZM143.239 18H133.159C132.463 18 131.863 17.76 131.359 17.28C130.879 16.776 130.639 16.176 130.639 15.48V7.92C130.639 7.224 130.879 6.636 131.359 6.156C131.863 5.652 132.463 5.4 133.159 5.4H140.719C141.415 5.4 142.003 5.652 142.483 6.156C142.987 6.636 143.239 7.224 143.239 7.92V10.44L140.719 12.96H133.519L135.679 10.8H140.719V7.56H133.159V15.84H143.239V18ZM165.198 5.4L161.742 18H157.782L155.838 9.396H155.478L153.462 18H149.502L146.118 5.4H148.818L151.158 15.912H151.878L154.47 5.4H156.99L159.438 15.912H160.158L162.498 5.4H165.198ZM179.43 5.4L177.234 7.56H171.15V10.44H176.19C176.886 10.44 177.474 10.692 177.954 11.196C178.458 11.676 178.71 12.264 178.71 12.96V15.48C178.71 16.176 178.458 16.776 177.954 17.28C177.474 17.76 176.886 18 176.19 18H168.63V15.84H176.19V12.6H171.15C170.454 12.6 169.854 12.36 169.35 11.88C168.87 11.376 168.63 10.776 168.63 10.08V7.92C168.63 7.224 168.87 6.636 169.35 6.156C169.854 5.652 170.454 5.4 171.15 5.4H179.43Z" fill="black"/>
</svg>
