<svg width="173" height="29" viewBox="0 0 173 29" fill="none" xmlns="http://www.w3.org/2000/svg">
<path d="M14.1342 8.4L11.9742 10.56H2.97422V18.84H10.5342V11.64H13.0542V26.04C13.0542 26.736 12.8022 27.324 12.2982 27.804C11.8182 28.308 11.2302 28.56 10.5342 28.56H0.0942188L2.25422 26.4H10.5342V19.164L8.37422 21H2.97422C2.27822 21 1.67822 20.76 1.17422 20.28C0.694219 19.776 0.454219 19.176 0.454219 18.48V10.92C0.454219 10.224 0.694219 9.636 1.17422 9.156C1.67822 8.652 2.27822 8.4 2.97422 8.4H14.1342ZM30.87 21H20.79C20.094 21 19.494 20.76 18.99 20.28C18.51 19.776 18.27 19.176 18.27 18.48V10.92C18.27 10.224 18.51 9.636 18.99 9.156C19.494 8.652 20.094 8.4 20.79 8.4H28.35C29.046 8.4 29.634 8.652 30.114 9.156C30.618 9.636 30.87 10.224 30.87 10.92V13.44L28.35 15.96H21.15L23.31 13.8H28.35V10.56H20.79V18.84H30.87V21ZM47.4286 21H44.9086V10.56H37.3486V21H34.8286V8.4H37.3486V10.2L39.1486 8.4H44.9086C45.6046 8.4 46.1926 8.652 46.6726 9.156C47.1766 9.636 47.4286 10.224 47.4286 10.92V21ZM65.077 21H54.997C54.301 21 53.701 20.76 53.197 20.28C52.717 19.776 52.477 19.176 52.477 18.48V10.92C52.477 10.224 52.717 9.636 53.197 9.156C53.701 8.652 54.301 8.4 54.997 8.4H62.557C63.253 8.4 63.841 8.652 64.321 9.156C64.825 9.636 65.077 10.224 65.077 10.92V13.44L62.557 15.96H55.357L57.517 13.8H62.557V10.56H54.997V18.84H65.077V21ZM79.1156 13.44H76.5956V10.56H71.5556V21H69.0356V8.4H71.5556V10.2L73.3556 8.4H76.5956C77.2916 8.4 77.8796 8.652 78.3596 9.156C78.8636 9.636 79.1156 10.224 79.1156 10.92V13.44ZM95.123 21H92.603V19.164L90.443 21H85.043C84.347 21 83.747 20.76 83.243 20.28C82.763 19.776 82.523 19.176 82.523 18.48V15.96C82.523 15.264 82.763 14.676 83.243 14.196C83.747 13.692 84.347 13.44 85.043 13.44H92.243L90.083 15.564H85.043V18.84H92.603V10.56H82.523L84.683 8.4H92.603C93.299 8.4 93.887 8.652 94.367 9.156C94.871 9.636 95.123 10.224 95.123 10.92V21ZM103.029 21H100.509V2.64L103.029 0.119998V21ZM126.453 8.4L124.257 10.56H118.173V18.84H125.733V21H118.173C117.477 21 116.877 20.76 116.373 20.28C115.893 19.776 115.653 19.176 115.653 18.48V10.92C115.653 10.224 115.893 9.636 116.373 9.156C116.877 8.652 117.477 8.4 118.173 8.4H126.453ZM141.937 21H139.417V10.56H131.857V21H129.337V2.64L131.857 0.119998V10.2L133.657 8.4H139.417C140.113 8.4 140.701 8.652 141.181 9.156C141.685 9.636 141.937 10.224 141.937 10.92V21ZM159.037 21H156.517V19.164L154.357 21H148.957C148.261 21 147.661 20.76 147.157 20.28C146.677 19.776 146.437 19.176 146.437 18.48V15.96C146.437 15.264 146.677 14.676 147.157 14.196C147.661 13.692 148.261 13.44 148.957 13.44H156.157L153.997 15.564H148.957V18.84H156.517V10.56H146.437L148.597 8.4H156.517C157.213 8.4 157.801 8.652 158.281 9.156C158.785 9.636 159.037 10.224 159.037 10.92V21ZM172.343 21H167.303C166.607 21 166.007 20.76 165.503 20.28C165.023 19.776 164.783 19.176 164.783 18.48V10.56H161.183L163.343 8.4H164.783V5.88L167.303 3.36V8.4H172.343V10.56H167.303V18.84H172.343V21Z" fill="black"/>
</svg>
