<svg width="86" height="29" viewBox="0 0 86 29" fill="none" xmlns="http://www.w3.org/2000/svg">
<path d="M14.2084 8.4L12.0484 10.56H3.04844V18.84H10.6084V11.64H13.1284V26.04C13.1284 26.736 12.8764 27.324 12.3724 27.804C11.8924 28.308 11.3044 28.56 10.6084 28.56H0.168438L2.32844 26.4H10.6084V19.164L8.44844 21H3.04844C2.35244 21 1.75244 20.76 1.24844 20.28C0.768438 19.776 0.528438 19.176 0.528438 18.48V10.92C0.528438 10.224 0.768438 9.636 1.24844 9.156C1.75244 8.652 2.35244 8.4 3.04844 8.4H14.2084ZM20.8642 6.24H18.3442V3.36H20.8642V6.24ZM20.8642 21H18.3442V10.2L20.8642 7.68V21ZM34.1828 21H29.1428C28.4468 21 27.8468 20.76 27.3428 20.28C26.8628 19.776 26.6228 19.176 26.6228 18.48V10.56H23.0228L25.1828 8.4H26.6228V5.88L29.1428 3.36V8.4H34.1828V10.56H29.1428V18.84H34.1828V21ZM50.7456 21H48.2256V10.56H40.6656V21H38.1456V2.64L40.6656 0.119998V10.2L42.4656 8.4H48.2256C48.9216 8.4 49.5096 8.652 49.9896 9.156C50.4936 9.636 50.7456 10.224 50.7456 10.92V21ZM67.8456 21H65.3256V19.164L63.1656 21H57.7656C57.0696 21 56.4696 20.76 55.9656 20.28C55.4856 19.776 55.2456 19.176 55.2456 18.48V15.96C55.2456 15.264 55.4856 14.676 55.9656 14.196C56.4696 13.692 57.0696 13.44 57.7656 13.44H64.9656L62.8056 15.564H57.7656V18.84H65.3256V10.56H55.2456L57.4056 8.4H65.3256C66.0216 8.4 66.6096 8.652 67.0896 9.156C67.5936 9.636 67.8456 10.224 67.8456 10.92V21ZM85.8316 18.48C85.8316 19.176 85.5796 19.776 85.0756 20.28C84.5956 20.76 84.0076 21 83.3116 21H75.7516V18.876L73.2316 21.36V2.64L75.7516 0.119998V10.2L77.5516 8.4H83.3116C84.0076 8.4 84.5956 8.652 85.0756 9.156C85.5796 9.636 85.8316 10.224 85.8316 10.92V18.48ZM83.3116 18.84V10.56H75.7516V18.84H83.3116Z" fill="black"/>
</svg>
