<svg width="94" height="24" viewBox="0 0 94 24" fill="none" xmlns="http://www.w3.org/2000/svg">
<path d="M21.0503 23.952H14.3303L5.21031 4.032H3.29031L4.73031 6.432V23.952H0.890313V0.431999H7.65831L16.7303 20.352H18.6503L17.2103 17.952V0.431999H21.0503V23.952ZM45.5116 24H32.0716C31.1436 24 30.3436 23.68 29.6716 23.04C29.0316 22.368 28.7116 21.568 28.7116 20.64V10.56C28.7116 9.632 29.0316 8.848 29.6716 8.208C30.3436 7.536 31.1436 7.2 32.0716 7.2H42.1516C43.0796 7.2 43.8636 7.536 44.5036 8.208C45.1756 8.848 45.5116 9.632 45.5116 10.56V13.92L42.1516 17.28H32.5516L35.4316 14.4H42.1516V10.08H32.0716V21.12H45.5116V24ZM74.7897 7.2L70.1817 24H64.9017L62.3097 12.528H61.8297L59.1417 24H53.8617L49.3497 7.2H52.9497L56.0697 21.216H57.0297L60.4857 7.2H63.8457L67.1097 21.216H68.0697L71.1897 7.2H74.7897ZM93.7666 7.2L90.8386 10.08H82.7266V13.92H89.4466C90.3746 13.92 91.1586 14.256 91.7986 14.928C92.4706 15.568 92.8066 16.352 92.8066 17.28V20.64C92.8066 21.568 92.4706 22.368 91.7986 23.04C91.1586 23.68 90.3746 24 89.4466 24H79.3666V21.12H89.4466V16.8H82.7266C81.7986 16.8 80.9986 16.48 80.3266 15.84C79.6866 15.168 79.3666 14.368 79.3666 13.44V10.56C79.3666 9.632 79.6866 8.848 80.3266 8.208C80.9986 7.536 81.7986 7.2 82.7266 7.2H93.7666Z" fill="black"/>
</svg>
