<svg width="169" height="32" viewBox="0 0 169 32" fill="none" xmlns="http://www.w3.org/2000/svg">
<path d="M27.64 18.56C27.64 19.7547 27.192 20.8 26.296 21.696C25.4 22.592 24.3547 23.04 23.16 23.04H5.88V32H0.76V9.6L5.24 5.12H0.76V0.639999H23.16C24.3547 0.639999 25.4 1.088 26.296 1.984C27.192 2.88 27.64 3.92533 27.64 5.12V18.56ZM22.52 18.56V5.12H5.88V22.4L9.72 18.56H22.52ZM43.3175 32H38.1975V0.639999H43.3175V32ZM79.7825 32H73.7665L64.8705 19.2H64.2305L55.8465 32H49.7025L61.2865 15.68L50.3425 0.639999H56.4865L64.6785 12.736H65.3185L73.1265 0.639999H79.1425L68.3265 15.68L79.7825 32ZM108.598 32H86.1975V9.6L90.6775 5.12H86.1975V0.639999H108.598V5.12H91.3175V17.92L95.1575 14.08H108.598V18.56H91.3175V27.52H108.598V32ZM140.598 32H118.198V0.639999H123.318V27.52H135.478V23.04H140.598V32ZM168.13 27.52C168.13 28.7573 167.682 29.824 166.786 30.72C165.933 31.5733 164.887 32 163.65 32H145.73V27.52H163.01V18.56H150.21C148.973 18.56 147.906 18.1333 147.01 17.28C146.157 16.384 145.73 15.3173 145.73 14.08V5.12C145.73 3.88266 146.157 2.83733 147.01 1.984C147.906 1.088 148.973 0.639999 150.21 0.639999H168.13V5.12H150.85V14.08H163.65C164.887 14.08 165.933 14.528 166.786 15.424C167.682 16.2773 168.13 17.3227 168.13 18.56V27.52Z" fill="black"/>
</svg>
