<svg width="136" height="29" viewBox="0 0 136 29" fill="none" xmlns="http://www.w3.org/2000/svg">
<path d="M11.5124 8.4L9.31642 10.56H3.23242V13.44H8.27242C8.96842 13.44 9.55642 13.692 10.0364 14.196C10.5404 14.676 10.7924 15.264 10.7924 15.96V18.48C10.7924 19.176 10.5404 19.776 10.0364 20.28C9.55642 20.76 8.96842 21 8.27242 21H0.712422V18.84H8.27242V15.6H3.23242C2.53642 15.6 1.93642 15.36 1.43242 14.88C0.952422 14.376 0.712422 13.776 0.712422 13.08V10.92C0.712422 10.224 0.952422 9.636 1.43242 9.156C1.93642 8.652 2.53642 8.4 3.23242 8.4H11.5124ZM17.7998 6.24H15.2798V3.36H17.7998V6.24ZM17.7998 21H15.2798V10.2L17.7998 7.68V21ZM31.1184 21H26.0784C25.3824 21 24.7824 20.76 24.2784 20.28C23.7984 19.776 23.5584 19.176 23.5584 18.48V10.56H19.9584L22.1184 8.4H23.5584V5.88L26.0784 3.36V8.4H31.1184V10.56H26.0784V18.84H31.1184V21ZM47.3212 21H37.2412C36.5452 21 35.9452 20.76 35.4412 20.28C34.9612 19.776 34.7212 19.176 34.7212 18.48V10.92C34.7212 10.224 34.9612 9.636 35.4412 9.156C35.9452 8.652 36.5452 8.4 37.2412 8.4H44.8012C45.4972 8.4 46.0852 8.652 46.5652 9.156C47.0692 9.636 47.3212 10.224 47.3212 10.92V13.44L44.8012 15.96H37.6012L39.7612 13.8H44.8012V10.56H37.2412V18.84H47.3212V21ZM71.0868 18.48C71.0868 19.176 70.8348 19.776 70.3308 20.28C69.8508 20.76 69.2628 21 68.5668 21H61.0068V28.56H58.4868V8.4H61.0068V10.2L62.8068 8.4H68.5668C69.2628 8.4 69.8508 8.652 70.3308 9.156C70.8348 9.636 71.0868 10.224 71.0868 10.92V18.48ZM68.5668 18.84V10.56H61.0068V20.64L62.8068 18.84H68.5668ZM88.7352 18.48C88.7352 19.176 88.4832 19.776 87.9792 20.28C87.4992 20.76 86.9112 21 86.2152 21H78.6552C77.9592 21 77.3592 20.76 76.8552 20.28C76.3752 19.776 76.1352 19.176 76.1352 18.48V10.92C76.1352 10.224 76.3752 9.636 76.8552 9.156C77.3592 8.652 77.9592 8.4 78.6552 8.4H86.2152C86.9112 8.4 87.4992 8.652 87.9792 9.156C88.4832 9.636 88.7352 10.224 88.7352 10.92V18.48ZM86.2152 18.84V10.56H78.6552V18.84H86.2152ZM96.6637 21H94.1437V2.64L96.6637 0.119998V21ZM104.601 6.24H102.081V3.36H104.601V6.24ZM104.601 21H102.081V10.2L104.601 7.68V21ZM120.439 8.4L118.243 10.56H112.159V18.84H119.719V21H112.159C111.463 21 110.863 20.76 110.359 20.28C109.879 19.776 109.639 19.176 109.639 18.48V10.92C109.639 10.224 109.879 9.636 110.359 9.156C110.863 8.652 111.463 8.4 112.159 8.4H120.439ZM135.563 26.04C135.563 26.736 135.311 27.324 134.807 27.804C134.327 28.308 133.739 28.56 133.043 28.56H122.603L124.763 26.4H133.043V19.2L131.243 21H125.483C124.787 21 124.187 20.76 123.683 20.28C123.203 19.776 122.963 19.176 122.963 18.48V8.4H125.483V18.84H133.043V8.4H135.563V26.04Z" fill="black"/>
</svg>
