<svg width="97" height="29" viewBox="0 0 97 29" fill="none" xmlns="http://www.w3.org/2000/svg">
<path d="M17.9219 7.84H10.9619V28H7.12188V7.84H0.161875V4.48H17.9219V7.84ZM37.5963 28H34.2363V25.552L31.3563 28H24.1562C23.2283 28 22.4283 27.68 21.7563 27.04C21.1163 26.368 20.7963 25.568 20.7963 24.64V21.28C20.7963 20.352 21.1163 19.568 21.7563 18.928C22.4283 18.256 23.2283 17.92 24.1562 17.92H33.7563L30.8763 20.752H24.1562V25.12H34.2363V14.08H20.7963L23.6763 11.2H34.2363C35.1643 11.2 35.9483 11.536 36.5883 12.208C37.2603 12.848 37.5963 13.632 37.5963 14.56V28ZM61.5775 24.64C61.5775 25.568 61.2415 26.368 60.5695 27.04C59.9295 27.68 59.1455 28 58.2175 28H48.1375V25.168L44.7775 28.48V3.52L48.1375 0.159998V13.6L50.5375 11.2H58.2175C59.1455 11.2 59.9295 11.536 60.5695 12.208C61.2415 12.848 61.5775 13.632 61.5775 14.56V24.64ZM58.2175 25.12V14.08H48.1375V25.12H58.2175ZM72.1375 28H68.7775V3.52L72.1375 0.159998V28ZM96.16 28H82.72C81.792 28 80.992 27.68 80.32 27.04C79.68 26.368 79.36 25.568 79.36 24.64V14.56C79.36 13.632 79.68 12.848 80.32 12.208C80.992 11.536 81.792 11.2 82.72 11.2H92.8C93.728 11.2 94.512 11.536 95.152 12.208C95.824 12.848 96.16 13.632 96.16 14.56V17.92L92.8 21.28H83.2L86.08 18.4H92.8V14.08H82.72V25.12H96.16V28Z" fill="black"/>
</svg>
